<svg width="272" height="351" viewBox="0 0 272 351" fill="none" xmlns="http://www.w3.org/2000/svg">
<path d="M61.7762 75.9009C71.9429 57.0676 103.676 16.4009 149.276 4.40091C206.276 -10.5991 244.776 15.4009 258.276 42.4009C271.776 69.4009 273.776 96.9009 270.776 107.901C267.776 118.901 254.276 138.401 254.276 143.401V326.901C250.11 334.901 236.776 350.901 216.776 350.901C191.776 350.901 173.276 342.901 172.276 326.901C171.476 314.101 171.943 238.234 172.276 201.901C167.61 203.401 156.476 206.401 149.276 206.401C140.276 206.401 138.776 206.901 130.776 213.401C122.776 219.901 111.276 230.401 82.7763 230.901C54.2763 231.401 12.2763 203.901 1.27625 153.901C-9.72375 103.901 53.7762 70.9009 61.7762 75.9009Z" fill="url(#paint0_linear_21_84)"/>
<defs>
<linearGradient id="paint0_linear_21_84" x1="135.994" y1="0" x2="135.994" y2="350.901" gradientUnits="userSpaceOnUse">
<stop stop-color="#00E6FF"/>
<stop offset="1" stop-color="#FFF760"/>
</linearGradient>
</defs>
</svg>
