<svg width="935" height="1367" viewBox="0 0 935 1367" fill="none" xmlns="http://www.w3.org/2000/svg">
<path d="M302.397 1.07947C91.1973 5.07947 27.3973 45.0795 21.8973 64.5795C-1.60273 133.579 11.8972 288.579 11.8972 324.579C11.8972 360.579 2.89726 478.079 0.89726 611.579C-1.10274 745.079 4.89726 1156.08 8.89726 1272.08C12.8973 1388.08 96.3972 1359.58 330.897 1365.58C565.397 1371.58 557.897 1286.08 599.897 1205.08C641.897 1124.08 705.897 905.579 735.897 895.079C765.897 884.579 820.397 898.579 839.897 895.079C859.397 891.579 880.397 813.579 918.897 732.579C957.397 651.579 913.897 579.579 880.397 503.579C846.897 427.579 807.897 452.579 735.897 443.579C663.897 434.579 631.897 205.579 589.397 114.079C546.897 22.5795 566.397 -3.92053 302.397 1.07947Z" fill="url(#paint0_linear_21_89)" stroke="white"/>
<defs>
<linearGradient id="paint0_linear_21_89" x1="467.236" y1="0.5" x2="467.236" y2="1365.88" gradientUnits="userSpaceOnUse">
<stop stop-color="#E8FFAD"/>
<stop offset="1" stop-color="#FFBF00"/>
</linearGradient>
</defs>
</svg>
