<svg width="886" height="435" viewBox="0 0 886 435" fill="none" xmlns="http://www.w3.org/2000/svg">
<g clip-path="url(#clip0_89_102)">
<rect width="886" height="435" fill="url(#paint0_linear_89_102)"/>
<path d="M-9 -85.134C-1.33333 -52.8006 85.4 146.8 135 182C197 226 333 284 364 279C395 274 497 278 524 233C551 188 527 165 524 121C521 77 493 43 524 -2.00001C555 -47 546 120 670 115C794 110 808 -80 813 -22C818 36 861 93 850 121C839 149 865 223 763 159C701.654 120.508 789 274 739 284C689 294 614 351 551 321C488 291 444.589 211.502 459 191C556 52.9999 451 261 403 133C355 4.99998 396 -13 323 -31C250 -49 285 -100 201 -51C117 -2 164 149 135 99C103.567 44.806 87 -53 81 149C75 351 30 326 89 380C148 434 115 514 286 462C457 410 593 456 507 349C421 242 309.21 231.538 374 218C441 204 291 220 364 121C437 22 416 36 459 -2.00001C502 -40 448 -64 564 -93C680 -122 577 56 670 78C763 100 803 -208 909 -65C1015 78 1092 -67 1035 133C978 333 1041 350 909 380C777 410 819 481 733 411C647 341 650 361 635 304C620 247 694 245 609 218C524 191 570 139 476 209C382 279 405 240 359 304C313 368 353 329 298 392C243 455 326 494 191 499C56 504 -26 548 -14 470C-2 392 -77 278 -82 269C-87 260 -217 248 -127 182C-37 116 60 149 105 209C150 269 152 374 219 339C286 304 321 314 280 209C239 104 275 125 225 90C175 55 109 -13 89 -39C69 -65 25 -90 0 -86C-25 -82 -87 -93 -96 -31C-103.2 18.6 -79.6667 62.3333 -67 78" stroke="url(#paint1_linear_89_102)" stroke-width="6" stroke-linecap="round"/>
</g>
<defs>
<linearGradient id="paint0_linear_89_102" x1="443" y1="0" x2="443" y2="435" gradientUnits="userSpaceOnUse">
<stop stop-color="#E7FFDE"/>
<stop offset="0.533654" stop-color="#F3FFCA"/>
</linearGradient>
<linearGradient id="paint1_linear_89_102" x1="447.847" y1="-139.837" x2="447.847" y2="515.866" gradientUnits="userSpaceOnUse">
<stop offset="0.134615" stop-color="#BE8AFF"/>
<stop offset="0.5" stop-color="#25D2CA"/>
<stop offset="1" stop-color="#9741FF"/>
</linearGradient>
<clipPath id="clip0_89_102">
<rect width="886" height="435" fill="white"/>
</clipPath>
</defs>
</svg>
