<svg width="1188" height="517" viewBox="0 0 1188 517" fill="none" xmlns="http://www.w3.org/2000/svg">
<path d="M744.788 23.5693C737.588 22.7693 716.455 35.9027 706.788 42.5693C706.455 43.0693 704.188 44.0693 697.788 44.0693C689.788 44.0693 681.788 41.0693 678.788 47.0693C675.788 53.0693 662.288 66.5693 659.288 68.5693C656.288 70.5693 596.788 93.5693 585.288 99.5693C573.788 105.569 569.288 102.569 564.788 103.569C560.288 104.569 523.288 118.569 517.288 121.069C511.288 123.569 495.788 129.069 488.788 128.069C481.788 127.069 473.288 125.569 468.788 129.069C464.288 132.569 462.288 142.069 457.288 145.069C452.288 148.069 416.788 162.069 409.788 163.569C402.788 165.069 398.788 151.069 395.288 154.569C391.788 158.069 394.288 157.569 393.788 162.069C393.288 166.569 388.288 172.069 385.788 174.069C383.288 176.069 367.788 188.569 364.288 191.069C360.788 193.569 358.288 195.569 354.288 194.069C350.288 192.569 341.788 193.569 338.288 195.569C334.788 197.569 335.288 201.069 330.788 207.569C326.288 214.069 321.788 218.069 264.788 245.069C219.188 266.669 139.122 274.069 104.788 275.069C90.4549 275.069 59.3883 275.669 49.7883 278.069C37.7883 281.069 40.2883 286.569 28.7883 286.569C19.5883 286.569 15.9549 288.236 15.2883 289.069C5.78827 296.069 2.78826 320.069 0.288264 347.069C-2.21174 374.069 12.2883 384.069 15.2883 386.569C18.2883 389.069 25.2883 391.069 24.7883 393.069C24.3883 394.669 23.9549 397.736 23.7883 399.069C24.6216 400.569 27.7883 403.669 33.7883 404.069C39.7883 404.469 40.9549 404.903 40.7883 405.069C39.955 406.569 40.7883 410.669 50.7883 415.069C63.2883 420.569 58.7883 411.069 64.7883 413.569C70.7883 416.069 68.7883 418.069 74.7883 423.069C80.7883 428.069 90.2883 437.069 92.2883 435.069C94.2883 433.069 95.7883 431.569 103.788 435.069C111.788 438.569 99.7883 440.069 117.288 448.569C134.788 457.069 131.288 445.069 136.288 446.569C140.288 447.769 139.955 453.069 139.288 455.569C142.122 457.736 150.688 462.669 162.288 465.069C176.788 468.069 169.788 458.569 176.788 460.569C183.788 462.569 180.788 468.069 182.788 469.569C184.788 471.069 196.288 475.569 209.288 479.069C222.288 482.569 218.788 473.069 223.788 474.069C228.788 475.069 226.288 478.069 228.788 481.569C231.288 485.069 260.788 489.069 276.288 495.069C291.788 501.069 337.788 509.569 355.288 510.069C369.288 510.469 379.122 513.903 382.288 515.569C401.288 517.069 416.288 512.569 420.288 513.069C424.288 513.569 434.788 515.069 445.788 515.569C456.788 516.069 459.788 514.569 467.288 514.069C474.788 513.569 498.288 515.569 512.288 516.569C523.488 517.369 533.288 516.236 536.788 515.569C537.288 513.569 546.788 509.569 547.788 512.069C548.588 514.069 550.455 515.236 551.288 515.569C567.288 516.069 578.788 513.069 583.788 513.069C588.788 513.069 589.288 510.569 593.288 509.569C596.488 508.769 599.955 511.569 601.288 513.069C608.288 513.569 624.288 511.569 628.788 509.069C633.288 506.569 638.788 508.069 648.288 509.069C657.788 510.069 677.788 507.569 684.288 506.069C690.788 504.569 770.288 502.069 781.788 503.069C793.288 504.069 802.788 508.569 809.288 508.569C815.788 508.569 822.788 503.069 827.288 503.069C831.788 503.069 834.288 508.069 847.288 508.069C860.288 508.069 875.288 505.569 879.788 507.069C884.288 508.569 890.288 511.069 907.788 511.069C925.288 511.069 930.788 507.069 934.288 507.069C937.788 507.069 958.788 509.569 977.288 507.069C992.088 505.069 1000.79 498.236 1003.29 495.069C1003.69 496.669 1005.45 497.736 1006.29 498.069C1016.29 498.569 1043.29 489.069 1048.29 486.069C1053.29 483.069 1070.29 468.569 1075.29 467.569C1080.29 466.569 1100.79 458.069 1107.29 453.569C1113.79 449.069 1127.79 430.569 1127.79 429.069C1127.79 427.569 1133.29 420.069 1135.79 419.569C1137.79 419.169 1147.29 409.736 1151.79 405.069C1157.29 396.736 1168.59 379.269 1169.79 376.069C1170.99 372.869 1169.62 371.069 1168.79 370.569C1170.79 363.769 1174.62 350.069 1176.29 344.069C1183.49 329.269 1186.95 300.903 1187.79 288.569C1186.19 270.169 1168.12 259.903 1159.29 257.069C1147.69 238.669 1134.12 232.736 1128.79 232.069C1129.29 227.569 1110.79 158.069 1100.29 116.069C1091.89 82.4693 1097.79 60.0693 1101.79 53.0693C1102.79 40.5693 1104.29 24.5693 1103.29 22.0693C1102.49 20.0693 1099.95 18.9026 1098.79 18.5693C1104.29 16.5693 1104.79 8.56931 1103.79 6.06931C1102.79 3.56931 1095.79 -2.43069 1060.29 1.06931C1024.79 4.56931 997.288 72.0693 985.288 92.5693C973.288 113.069 945.788 114.069 910.788 118.569C875.788 123.069 793.788 75.5693 792.288 72.0693C790.788 68.5693 785.288 63.0693 783.288 61.5693C781.688 60.3693 782.622 54.736 783.288 52.0693C778.788 39.0693 753.788 24.5693 744.788 23.5693Z" fill="url(#paint0_linear_21_79)"/>
<defs>
<linearGradient id="paint0_linear_21_79" x1="593.894" y1="0" x2="593.894" y2="516.844" gradientUnits="userSpaceOnUse">
<stop stop-color="#ECFF9F"/>
<stop offset="0.519231" stop-color="#91D531"/>
<stop offset="0.985577" stop-color="#FF488E"/>
</linearGradient>
</defs>
</svg>
